HIERARCHY
ROOT SpineBase
{
  OFFSET 0.000000 0.000000 0.000000
  CHANNELS 6 Xposition Yposition Zposition Zrotation Xrotation Yrotation
  JOINT SpineMid
  {
    OFFSET 0.000000 28.877596 0.000000
    CHANNELS 3 Zrotation Xrotation Yrotation
    JOINT SpineShoulder
    {
      OFFSET -0.213965 21.418381 -0.694327
      CHANNELS 3 Zrotation Xrotation Yrotation
      JOINT Neck
      {
        OFFSET -0.110138 7.082858 -0.611721
        CHANNELS 3 Zrotation Xrotation Yrotation
        JOINT Head
        {
          OFFSET -2.568393 12.070791 1.911024
          CHANNELS 3 Zrotation Xrotation Yrotation
          End Site
          {
            OFFSET 0 0 0
          }
        }
      }
      JOINT ShoulderLeft
      {
        OFFSET -11.503177 -3.297392 10.270465
        CHANNELS 3 Zrotation Xrotation Yrotation
        JOINT ElbowLeft
        {
          OFFSET -2.914079 -28.612407 8.486841
          CHANNELS 3 Zrotation Xrotation Yrotation
          JOINT WristLeft
          {
            OFFSET 1.064316 -25.206234 -6.597041
            CHANNELS 3 Zrotation Xrotation Yrotation
            JOINT HandLeft
            {
              OFFSET 0.476366 -3.554563 -1.954079
              CHANNELS 3 Zrotation Xrotation Yrotation
              JOINT HandTipLeft
              {
                OFFSET -0.229719 -6.836596 -2.516218
                CHANNELS 3 Zrotation Xrotation Yrotation
                End Site
                {
                  OFFSET 0 0 0
                }
              }
              JOINT ThumbLeft
              {
                OFFSET -1.066943 0.482951 -0.343743
                CHANNELS 3 Zrotation Xrotation Yrotation
                End Site
                {
                  OFFSET 0 0 0
                }
              }
            }
          }
        }
      }
      JOINT ShoulderRight
      {
        OFFSET 7.012860 -4.297108 -12.430956
        CHANNELS 3 Zrotation Xrotation Yrotation
        JOINT ElbowRight
        {
          OFFSET 5.822954 -22.070176 -4.544827
          CHANNELS 3 Zrotation Xrotation Yrotation
          JOINT WristRight
          {
            OFFSET -3.103628 -22.043752 -4.106767
            CHANNELS 3 Zrotation Xrotation Yrotation
            JOINT HandRight
            {
              OFFSET -0.747102 -6.082608 -0.005708
              CHANNELS 3 Zrotation Xrotation Yrotation
              JOINT HandTipRight
              {
                OFFSET -0.324071 -5.656680 0.796479
                CHANNELS 3 Zrotation Xrotation Yrotation
                End Site
                {
                  OFFSET 0 0 0
                }
              }
              JOINT ThumbRight
              {
                OFFSET -2.522156 1.748799 0.148569
                CHANNELS 3 Zrotation Xrotation Yrotation
                End Site
                {
                  OFFSET 0 0 0
                }
              }
            }
          }
        }
      }
    }
  }
  JOINT HipLeft
  {
    OFFSET -4.663277 0.627255 0.990004
    CHANNELS 3 Zrotation Xrotation Yrotation
    JOINT KneeLeft
    {
      OFFSET 4.171819 -27.065758 7.429838
      CHANNELS 3 Zrotation Xrotation Yrotation
      JOINT AnkleLeft
      {
        OFFSET 9.822999 -35.278920 7.382117
        CHANNELS 3 Zrotation Xrotation Yrotation
        JOINT FootLeft
        {
          OFFSET -2.776253 -6.806353 -2.998876
          CHANNELS 3 Zrotation Xrotation Yrotation
          End Site
          {
            OFFSET 0 0 0
          }
        }
      }
    }
  }
  JOINT HipRight
  {
    OFFSET 4.034433 0.878693 -7.743765
    CHANNELS 3 Zrotation Xrotation Yrotation
    JOINT KneeRight
    {
      OFFSET 10.787957 -31.232973 5.724592
      CHANNELS 3 Zrotation Xrotation Yrotation
      JOINT AnkleRight
      {
        OFFSET 6.758917 -30.123701 5.263013
        CHANNELS 3 Zrotation Xrotation Yrotation
        JOINT FootRight
        {
          OFFSET -3.694912 -6.597376 4.148418
          CHANNELS 3 Zrotation Xrotation Yrotation
          End Site
          {
            OFFSET 0 0 0
          }
        }
      }
    }
  }
}
MOTION
Frames: 11
Frame Time: 0.033333
25.289625 66.970156 339.536130 6.866468 19.353863 54.083188 0.210646 0.676518 -54.958362 -0.222437 0.823274 0.368182 26.874308 -1.358719 3.225204 0.000000 0.000000 0.000000 -6.510254 -20.651838 -2.044381 14.640602 -7.797843 -3.218361 -30.885189 -24.111544 9.823371 62.833844 55.637556 -46.425940 0.000000 0.000000 0.000000 0.000000 0.000000 0.000000 28.119844 4.323918 2.347265 -7.219598 9.142203 -13.028322 8.560253 1.433920 8.042539 -16.649894 -4.359827 0.881451 0.000000 0.000000 0.000000 0.000000 0.000000 0.000000 -14.363659 0.459260 -55.293283 8.112955 -3.831507 2.480688 -35.756018 24.112287 4.311792 0.000000 0.000000 0.000000 -3.687790 81.102484 -60.128867 18.132725 -12.989051 -3.669401 38.034254 20.858015 -38.845350 0.000000 0.000000 0.000000
25.146797 66.660059 339.706017 6.735083 19.471220 54.562013 -0.186935 0.594943 -55.437888 -0.241204 0.874166 0.346311 25.027064 -0.575192 3.099280 0.000000 0.000000 0.000000 -6.165538 -20.453049 -1.939074 15.680591 -9.798409 -3.245061 -27.142791 -19.541996 9.244965 108.398644 52.453322 -90.703577 0.000000 0.000000 0.000000 0.000000 0.000000 0.000000 28.087920 6.076991 2.270076 -7.343072 10.138742 -14.090040 2.785462 0.157484 6.324081 -10.986448 -3.838691 2.179867 0.000000 0.000000 0.000000 0.000000 0.000000 0.000000 -14.564798 1.068810 -55.945159 7.800744 -3.545635 2.515533 -36.520830 23.969076 5.023788 0.000000 0.000000 0.000000 4.188905 84.185168 -68.357373 21.578091 -15.672912 -2.948441 35.321769 22.385069 -41.892142 0.000000 0.000000 0.000000
25.213440 66.472070 339.801065 6.498248 19.401851 55.249398 -0.193231 0.685137 -56.105963 -0.285965 0.880155 0.319745 24.803110 0.754429 3.086643 0.000000 0.000000 0.000000 -5.783510 -20.437216 -1.837257 15.773678 -8.888080 -3.344463 -26.946511 -22.868538 8.252270 134.768008 32.743205 -113.957572 0.000000 0.000000 0.000000 0.000000 0.000000 0.000000 27.966743 7.754440 2.312637 -9.461599 10.912489 -14.909216 4.124462 -1.147984 6.752386 -11.382705 -3.138343 1.467012 0.000000 0.000000 0.000000 0.000000 0.000000 0.000000 -15.020187 1.481678 -56.858657 8.240183 -2.840345 2.772393 -35.174349 21.405585 4.521505 0.000000 0.000000 0.000000 7.347424 84.534657 -72.415619 25.982839 -17.250129 -0.276389 35.997193 24.574248 -41.691224 0.000000 0.000000 0.000000
25.455629 66.558771 339.753393 6.242666 19.328173 55.655842 -0.190892 0.771896 -56.489009 -0.297020 0.921750 0.300392 24.708798 1.924923 3.105171 0.000000 0.000000 0.000000 -5.429133 -20.458271 -1.745184 15.051407 -5.803117 -3.465640 -28.285824 -28.975876 6.726012 146.366641 22.468344 -123.517325 0.000000 0.000000 0.000000 0.000000 0.000000 0.000000 26.520422 9.656418 2.517293 -10.038083 9.839356 -15.228661 2.274064 0.659296 4.931411 -10.866646 -5.517328 1.201867 0.000000 0.000000 0.000000 0.000000 0.000000 0.000000 -15.488811 1.501159 -57.443395 8.139926 -2.077704 2.840939 -33.400636 19.925838 3.979691 0.000000 0.000000 0.000000 4.715451 84.209211 -70.779369 33.003955 -19.677319 3.871305 34.156678 27.838079 -43.812082 0.000000 0.000000 0.000000
25.696209 66.815551 339.587082 5.913038 19.234701 56.003370 -0.190789 0.838557 -56.798123 -0.267449 0.925404 0.289906 24.260191 2.643297 3.131930 0.000000 0.000000 0.000000 -5.057841 -20.408077 -1.644314 13.752931 -1.413309 -3.498455 -31.030878 -34.212396 4.868395 147.146299 17.096768 -119.919063 0.000000 0.000000 0.000000 0.000000 0.000000 0.000000 24.290776 11.527640 2.855983 -10.298698 8.226409 -15.342340 0.215050 2.010330 3.212578 -7.881959 -7.281645 2.101214 0.000000 0.000000 0.000000 0.000000 0.000000 0.000000 -15.793673 1.134396 -57.866126 7.306408 -1.308384 2.688105 -31.429871 17.373473 3.815127 0.000000 0.000000 0.000000 -0.450150 82.606095 -66.430920 41.806253 -22.022303 9.182913 31.370514 31.495287 -46.593286 0.000000 0.000000 0.000000
25.573075 67.439011 339.011441 5.009264 19.511058 57.972626 -0.239206 0.545151 -58.600535 -0.319949 1.037519 0.243605 23.020440 2.188230 3.392251 0.000000 0.000000 0.000000 -4.302905 -20.586787 -1.455184 11.593982 3.478706 -3.211015 -35.037162 -38.032422 2.600261 130.049187 59.343047 -107.833345 0.000000 0.000000 0.000000 0.000000 0.000000 0.000000 21.990332 13.479087 3.524718 -10.685227 5.801173 -15.418166 -1.399029 -0.006826 2.457884 -6.066049 -5.620200 1.869339 0.000000 0.000000 0.000000 0.000000 0.000000 0.000000 -16.083881 -0.439463 -59.659062 5.361777 -0.094275 2.247807 -27.582829 12.645879 3.332623 0.000000 0.000000 0.000000 0.004676 78.074580 -68.419778 48.953911 -22.372443 13.684633 28.991544 36.055923 -50.742373 0.000000 0.000000 0.000000
25.251158 68.075774 338.247978 4.028693 19.804335 59.218875 -0.486031 0.369322 -59.704099 -0.281089 0.959820 0.211722 20.225553 0.752521 3.573647 0.000000 0.000000 0.000000 -3.354811 -20.502144 -1.200712 8.857112 9.680737 -2.597998 -53.185851 -39.230468 1.699494 60.260469 56.885459 -33.528024 0.000000 0.000000 0.000000 0.000000 0.000000 0.000000 18.883017 15.242728 4.381172 -11.089826 1.857062 -15.053053 -0.813282 3.808171 1.245975 -6.049248 -7.608244 1.405880 0.000000 0.000000 0.000000 0.000000 0.000000 0.000000 -16.247692 -2.986050 -60.563445 2.475876 1.067543 1.544844 -20.842755 -3.073372 4.503392 0.000000 0.000000 0.000000 -3.739142 72.499959 -66.463862 54.190133 -21.744591 16.688795 30.388729 40.025725 -53.076041 0.000000 0.000000 0.000000
25.156898 68.393666 337.963493 3.430910 19.039102 58.797630 -0.165578 0.767910 -59.224946 -0.433445 0.598808 0.138202 16.254284 -1.582719 3.436319 0.000000 0.000000 0.000000 -2.366861 -19.873186 -0.917698 5.735291 15.370103 -1.565271 -67.085856 -32.901122 4.801666 51.013695 27.105544 -22.939302 0.000000 0.000000 0.000000 0.000000 0.000000 0.000000 15.435838 16.399183 5.194200 -11.403295 -1.766055 -14.550087 -0.813899 10.083326 -0.380117 -4.049464 -14.285192 2.106809 0.000000 0.000000 0.000000 0.000000 0.000000 0.000000 -15.173991 -4.496574 -59.718454 0.651793 1.741205 1.140849 -14.656841 -10.478453 4.685734 0.000000 0.000000 0.000000 -6.967606 68.442778 -62.667527 58.448817 -22.481450 18.812768 33.713448 42.266120 -52.880118 0.000000 0.000000 0.000000
25.290054 68.515915 338.100475 3.178638 17.525854 59.439661 -0.005658 1.289403 -59.871970 -0.501718 0.102346 0.087403 12.617840 -1.926499 2.989493 0.000000 0.000000 0.000000 -1.616357 -18.264115 -0.676633 2.603689 19.395933 -0.286613 -74.788442 -21.302840 14.510647 51.696168 -2.061651 -23.295430 0.000000 0.000000 0.000000 0.000000 0.000000 0.000000 12.141855 17.133506 5.632145 -11.969810 -4.055579 -13.952314 -2.207794 15.047031 -1.639336 -3.166916 -17.389836 1.196305 0.000000 0.000000 0.000000 0.000000 0.000000 0.000000 -12.723727 -4.811897 -59.542752 -0.803582 -0.589497 0.088786 -13.821152 6.389486 1.311445 0.000000 0.000000 0.000000 -5.508877 66.278999 -63.045751 63.149577 -23.864807 21.041793 35.488383 41.461414 -45.590366 0.000000 0.000000 0.000000
25.617010 68.408944 338.614218 3.294181 15.619285 60.542326 -0.077958 1.814940 -61.021801 -0.492520 -0.321489 0.063835 8.521084 -1.291486 2.523026 0.000000 0.000000 0.000000 -1.194690 -16.108495 -0.518144 0.060415 21.502022 0.849197 -78.697220 -20.857972 14.632429 55.059589 -12.172953 -25.668559 0.000000 0.000000 0.000000 0.000000 0.000000 0.000000 8.995606 17.193142 5.770964 -12.896255 -4.580185 -13.203121 -4.632718 16.421590 -2.191250 0.890280 -18.259018 1.759452 0.000000 0.000000 0.000000 0.000000 0.000000 0.000000 -9.791813 -3.955576 -59.870841 -1.623080 1.451870 0.490632 -15.689800 6.632394 -0.315562 0.000000 0.000000 0.000000 -3.245427 62.891209 -64.165570 64.653635 -24.751785 21.612536 30.938874 42.066160 -43.412941 0.000000 0.000000 0.000000
26.039367 68.202592 339.341608 3.418970 13.421213 62.222479 -0.037602 2.330839 -62.714055 -0.455242 -0.474140 0.049102 4.319018 -1.302180 2.140126 0.000000 0.000000 0.000000 -0.874508 -13.985899 -0.397202 -1.474463 21.558458 1.513168 -52.259761 -19.080724 9.387412 32.705095 -2.816279 -18.716271 0.000000 0.000000 0.000000 0.000000 0.000000 0.000000 5.936918 16.790137 5.889555 -13.794833 -4.770515 -12.282883 -7.338245 15.088517 -2.447507 5.374355 -17.445958 2.210752 0.000000 0.000000 0.000000 0.000000 0.000000 0.000000 -5.841218 -2.342041 -60.742556 -2.546781 2.148714 0.589571 -16.098002 10.866949 -2.974583 0.000000 0.000000 0.000000 -0.166509 59.105761 -66.121153 65.363607 -25.577679 21.785856 25.427595 43.594300 -42.753404 0.000000 0.000000 0.000000
